# Blender 3.3.0
# www.blender.org
o ì›ë¿”
v -0.000001 0.188902 -2.876149
v -0.058375 0.179656 -2.876149
v -0.111035 0.152825 -2.876149
v -0.152826 0.111034 -2.876149
v -0.179657 0.058374 -2.876149
v -0.188903 -0.000000 -2.876149
v -0.179657 -0.058374 -2.876149
v -0.152826 -0.111034 -2.876149
v -0.111035 -0.152825 -2.876149
v -0.058375 -0.179656 -2.876149
v -0.000001 -0.188902 -2.876149
v 0.058373 -0.179656 -2.876149
v 0.111033 -0.152825 -2.876149
v 0.152824 -0.111034 -2.876149
v 0.179655 -0.058374 -2.876149
v 0.188901 -0.000000 -2.876149
v 0.179655 0.058374 -2.876149
v 0.152824 0.111034 -2.876149
v 0.111033 0.152825 -2.876149
v 0.058373 0.179656 -2.876149
v -0.000001 -0.000000 -3.950330
v -0.000001 0.407182 -2.876149
v -0.125827 0.387253 -2.876149
v -0.239336 0.329417 -2.876149
v -0.329418 0.239335 -2.876149
v -0.387254 0.125826 -2.876149
v -0.407183 -0.000000 -2.876149
v -0.387254 -0.125826 -2.876149
v -0.329418 -0.239335 -2.876149
v -0.239336 -0.329417 -2.876149
v -0.125827 -0.387253 -2.876149
v -0.000001 -0.407182 -2.876149
v 0.125825 -0.387253 -2.876149
v 0.239334 -0.329417 -2.876149
v 0.329416 -0.239335 -2.876149
v 0.387252 -0.125826 -2.876149
v 0.407181 -0.000000 -2.876149
v 0.387252 0.125826 -2.876149
v 0.329416 0.239335 -2.876149
v 0.239334 0.329417 -2.876149
v 0.125825 0.387253 -2.876149
v -0.000001 0.188902 -2.876149
v -0.058375 0.179656 -2.876149
v -0.111035 0.152825 -2.876149
v -0.152826 0.111034 -2.876149
v -0.179657 0.058374 -2.876149
v -0.188903 -0.000000 -2.876149
v -0.179657 -0.058374 -2.876149
v -0.152826 -0.111034 -2.876149
v -0.111035 -0.152825 -2.876149
v -0.058375 -0.179656 -2.876149
v -0.000001 -0.188902 -2.876149
v 0.058373 -0.179656 -2.876149
v 0.111033 -0.152825 -2.876149
v 0.152824 -0.111034 -2.876149
v 0.179655 -0.058374 -2.876149
v 0.188901 -0.000000 -2.876149
v 0.179655 0.058374 -2.876149
v 0.152824 0.111034 -2.876149
v 0.111033 0.152825 -2.876149
v 0.058373 0.179656 -2.876149
v -0.000000 0.188902 -0.000000
v -0.058374 0.179656 0.000000
v -0.111034 0.152825 0.000000
v -0.152825 0.111034 0.000000
v -0.179656 0.058374 0.000000
v -0.188902 0.000000 0.000000
v -0.179656 -0.058374 0.000000
v -0.152825 -0.111034 0.000000
v -0.111034 -0.152825 0.000000
v -0.058374 -0.179656 0.000000
v -0.000000 -0.188902 0.000000
v 0.058374 -0.179656 -0.000000
v 0.111034 -0.152825 -0.000000
v 0.152825 -0.111034 -0.000000
v 0.179656 -0.058374 -0.000000
v 0.188902 0.000000 -0.000000
v 0.179656 0.058374 -0.000000
v 0.152825 0.111034 -0.000000
v 0.111034 0.152825 -0.000000
v 0.058374 0.179656 -0.000000
vn -0.0000 0.9351 -0.3545
vn -0.0000 -0.0000 -1.0000
vn -0.2890 0.8893 -0.3545
vn -0.5496 0.7565 -0.3545
vn -0.7565 0.5496 -0.3545
vn -0.8893 0.2890 -0.3545
vn -0.9351 -0.0000 -0.3545
vn -0.8893 -0.2890 -0.3545
vn -0.7565 -0.5496 -0.3545
vn -0.5496 -0.7565 -0.3545
vn -0.2890 -0.8893 -0.3545
vn -0.0000 -0.9351 -0.3545
vn 0.2890 -0.8893 -0.3545
vn 0.5496 -0.7565 -0.3545
vn 0.7565 -0.5496 -0.3545
vn 0.8893 -0.2890 -0.3545
vn 0.9351 -0.0000 -0.3545
vn 0.8893 0.2890 -0.3545
vn 0.7565 0.5496 -0.3545
vn 0.5496 0.7565 -0.3545
vn 0.2890 0.8893 -0.3545
vn -0.0000 -0.0000 1.0000
vn -0.9511 -0.3090 -0.0000
vn -1.0000 -0.0000 -0.0000
vn 0.9511 -0.3090 -0.0000
vn 0.8090 -0.5878 -0.0000
vn -0.8090 -0.5878 -0.0000
vn 1.0000 -0.0000 -0.0000
vn -0.5878 -0.8090 -0.0000
vn -0.3090 0.9511 -0.0000
vn -0.0000 1.0000 -0.0000
vn 0.9511 0.3090 -0.0000
vn -0.3090 -0.9511 -0.0000
vn -0.5878 0.8090 -0.0000
vn 0.8090 0.5878 -0.0000
vn -0.0000 -1.0000 -0.0000
vn -0.8090 0.5878 -0.0000
vn 0.5878 0.8090 -0.0000
vn 0.3090 -0.9511 -0.0000
vn -0.9511 0.3090 -0.0000
vn 0.3090 0.9511 -0.0000
vn 0.5878 -0.8090 -0.0000
vt 0.750000 0.361342
vt 0.784407 0.355893
vt 0.815445 0.340078
vt 0.840078 0.315445
vt 0.855893 0.284407
vt 0.861342 0.250000
vt 0.855893 0.215593
vt 0.840078 0.184555
vt 0.815445 0.159922
vt 0.784407 0.144107
vt 0.750000 0.138658
vt 0.715594 0.144107
vt 0.684555 0.159922
vt 0.659922 0.184555
vt 0.644107 0.215593
vt 0.638658 0.250000
vt 0.644107 0.284407
vt 0.659922 0.315445
vt 0.684555 0.340078
vt 0.715593 0.355893
vt 0.250000 0.250000
vt 0.250000 0.490000
vt 0.750000 0.490000
vt 0.324164 0.478254
vt 0.824164 0.478254
vt 0.391068 0.444164
vt 0.891068 0.444164
vt 0.444164 0.391068
vt 0.944164 0.391068
vt 0.478254 0.324164
vt 0.978254 0.324164
vt 0.490000 0.250000
vt 0.990000 0.250000
vt 0.478254 0.175836
vt 0.978254 0.175836
vt 0.444164 0.108932
vt 0.944164 0.108932
vt 0.391068 0.055836
vt 0.891068 0.055836
vt 0.324164 0.021746
vt 0.824164 0.021746
vt 0.250000 0.010000
vt 0.750000 0.010000
vt 0.175836 0.021746
vt 0.675836 0.021746
vt 0.108932 0.055836
vt 0.608932 0.055836
vt 0.055836 0.108932
vt 0.555836 0.108932
vt 0.021746 0.175836
vt 0.521746 0.175836
vt 0.010000 0.250000
vt 0.510000 0.250000
vt 0.021746 0.324164
vt 0.521746 0.324164
vt 0.055836 0.391068
vt 0.555836 0.391068
vt 0.108932 0.444164
vt 0.608932 0.444164
vt 0.175836 0.478254
vt 0.675836 0.478254
vt 0.750000 0.361342
vt 0.784407 0.355893
vt 0.815445 0.340078
vt 0.840078 0.315445
vt 0.855893 0.284407
vt 0.861342 0.250000
vt 0.855893 0.215593
vt 0.840078 0.184555
vt 0.815445 0.159922
vt 0.784407 0.144107
vt 0.750000 0.138658
vt 0.715594 0.144107
vt 0.684555 0.159922
vt 0.659922 0.184555
vt 0.644107 0.215593
vt 0.638658 0.250000
vt 0.644107 0.284407
vt 0.659922 0.315445
vt 0.684555 0.340078
vt 0.715593 0.355893
vt 0.750000 0.361342
vt 0.784407 0.355893
vt 0.815445 0.340078
vt 0.840078 0.315445
vt 0.855893 0.284407
vt 0.861342 0.250000
vt 0.855893 0.215593
vt 0.840078 0.184555
vt 0.815445 0.159922
vt 0.784407 0.144107
vt 0.750000 0.138658
vt 0.715594 0.144107
vt 0.684555 0.159922
vt 0.659922 0.184555
vt 0.644107 0.215593
vt 0.638658 0.250000
vt 0.644107 0.284407
vt 0.659922 0.315445
vt 0.684555 0.340078
vt 0.715593 0.355893
s 1
f 22/22/1 21/21/2 23/24/3
f 23/24/3 21/21/2 24/26/4
f 24/26/4 21/21/2 25/28/5
f 25/28/5 21/21/2 26/30/6
f 26/30/6 21/21/2 27/32/7
f 27/32/7 21/21/2 28/34/8
f 28/34/8 21/21/2 29/36/9
f 29/36/9 21/21/2 30/38/10
f 30/38/10 21/21/2 31/40/11
f 31/40/11 21/21/2 32/42/12
f 32/42/12 21/21/2 33/44/13
f 33/44/13 21/21/2 34/46/14
f 34/46/14 21/21/2 35/48/15
f 35/48/15 21/21/2 36/50/16
f 36/50/16 21/21/2 37/52/17
f 37/52/17 21/21/2 38/54/18
f 38/54/18 21/21/2 39/56/19
f 39/56/19 21/21/2 40/58/20
f 9/9/2 51/71/2 50/70/2
f 40/58/20 21/21/2 41/60/21
f 41/60/21 21/21/2 22/22/1
f 1/1/22 23/25/22 2/2/22
f 3/3/22 23/25/22 24/27/22
f 3/3/22 25/29/22 4/4/22
f 4/4/22 26/31/22 5/5/22
f 5/5/22 27/33/22 6/6/22
f 7/7/22 27/33/22 28/35/22
f 8/8/22 28/35/22 29/37/22
f 8/8/22 30/39/22 9/9/22
f 9/9/22 31/41/22 10/10/22
f 10/10/22 32/43/22 11/11/22
f 11/11/22 33/45/22 12/12/22
f 13/13/22 33/45/22 34/47/22
f 13/13/22 35/49/22 14/14/22
f 14/14/22 36/51/22 15/15/22
f 16/16/22 36/51/22 37/53/22
f 16/16/22 38/55/22 17/17/22
f 17/17/22 39/57/22 18/18/22
f 18/18/22 40/59/22 19/19/22
f 19/19/22 41/61/22 20/20/22
f 1/1/22 41/61/22 22/23/22
f 48/68/23 67/87/24 47/67/24
f 2/2/2 44/64/2 43/63/2
f 17/17/2 59/79/2 58/78/2
f 10/10/2 52/72/2 51/71/2
f 3/3/2 45/65/2 44/64/2
f 18/18/2 60/80/2 59/79/2
f 11/11/2 53/73/2 52/72/2
f 4/4/2 46/66/2 45/65/2
f 19/19/2 61/81/2 60/80/2
f 12/12/2 54/74/2 53/73/2
f 5/5/2 47/67/2 46/66/2
f 20/20/2 42/62/2 61/81/2
f 13/13/2 55/75/2 54/74/2
f 6/6/2 48/68/2 47/67/2
f 14/14/2 56/76/2 55/75/2
f 7/7/2 49/69/2 48/68/2
f 15/15/2 57/77/2 56/76/2
f 8/8/2 50/70/2 49/69/2
f 1/1/2 43/63/2 42/62/2
f 16/16/2 58/78/2 57/77/2
f 69/89/22 77/97/22 81/101/22
f 56/76/25 75/95/26 55/75/26
f 49/69/27 68/88/23 48/68/23
f 57/77/28 76/96/25 56/76/25
f 49/69/27 70/90/29 69/89/27
f 43/63/30 62/82/31 42/62/31
f 58/78/32 77/97/28 57/77/28
f 51/71/33 70/90/29 50/70/29
f 44/64/34 63/83/30 43/63/30
f 59/79/35 78/98/32 58/78/32
f 52/72/36 71/91/33 51/71/33
f 45/65/37 64/84/34 44/64/34
f 60/80/38 79/99/35 59/79/35
f 53/73/39 72/92/36 52/72/36
f 46/66/40 65/85/37 45/65/37
f 61/81/41 80/100/38 60/80/38
f 53/73/39 74/94/42 73/93/39
f 47/67/24 66/86/40 46/66/40
f 42/62/31 81/101/41 61/81/41
f 55/75/26 74/94/42 54/74/42
f 9/9/2 10/10/2 51/71/2
f 1/1/22 22/23/22 23/25/22
f 3/3/22 2/2/22 23/25/22
f 3/3/22 24/27/22 25/29/22
f 4/4/22 25/29/22 26/31/22
f 5/5/22 26/31/22 27/33/22
f 7/7/22 6/6/22 27/33/22
f 8/8/22 7/7/22 28/35/22
f 8/8/22 29/37/22 30/39/22
f 9/9/22 30/39/22 31/41/22
f 10/10/22 31/41/22 32/43/22
f 11/11/22 32/43/22 33/45/22
f 13/13/22 12/12/22 33/45/22
f 13/13/22 34/47/22 35/49/22
f 14/14/22 35/49/22 36/51/22
f 16/16/22 15/15/22 36/51/22
f 16/16/22 37/53/22 38/55/22
f 17/17/22 38/55/22 39/57/22
f 18/18/22 39/57/22 40/59/22
f 19/19/22 40/59/22 41/61/22
f 1/1/22 20/20/22 41/61/22
f 48/68/23 68/88/23 67/87/24
f 2/2/2 3/3/2 44/64/2
f 17/17/2 18/18/2 59/79/2
f 10/10/2 11/11/2 52/72/2
f 3/3/2 4/4/2 45/65/2
f 18/18/2 19/19/2 60/80/2
f 11/11/2 12/12/2 53/73/2
f 4/4/2 5/5/2 46/66/2
f 19/19/2 20/20/2 61/81/2
f 12/12/2 13/13/2 54/74/2
f 5/5/2 6/6/2 47/67/2
f 20/20/2 1/1/2 42/62/2
f 13/13/2 14/14/2 55/75/2
f 6/6/2 7/7/2 48/68/2
f 14/14/2 15/15/2 56/76/2
f 7/7/2 8/8/2 49/69/2
f 15/15/2 16/16/2 57/77/2
f 8/8/2 9/9/2 50/70/2
f 1/1/2 2/2/2 43/63/2
f 16/16/2 17/17/2 58/78/2
f 81/101/22 62/82/22 63/83/22
f 63/83/22 64/84/22 65/85/22
f 65/85/22 66/86/22 67/87/22
f 67/87/22 68/88/22 69/89/22
f 69/89/22 70/90/22 71/91/22
f 71/91/22 72/92/22 73/93/22
f 73/93/22 74/94/22 75/95/22
f 75/95/22 76/96/22 77/97/22
f 77/97/22 78/98/22 79/99/22
f 79/99/22 80/100/22 81/101/22
f 81/101/22 63/83/22 65/85/22
f 65/85/22 67/87/22 69/89/22
f 69/89/22 71/91/22 73/93/22
f 73/93/22 75/95/22 77/97/22
f 77/97/22 79/99/22 81/101/22
f 81/101/22 65/85/22 69/89/22
f 69/89/22 73/93/22 77/97/22
f 56/76/25 76/96/25 75/95/26
f 49/69/27 69/89/27 68/88/23
f 57/77/28 77/97/28 76/96/25
f 49/69/27 50/70/29 70/90/29
f 43/63/30 63/83/30 62/82/31
f 58/78/32 78/98/32 77/97/28
f 51/71/33 71/91/33 70/90/29
f 44/64/34 64/84/34 63/83/30
f 59/79/35 79/99/35 78/98/32
f 52/72/36 72/92/36 71/91/33
f 45/65/37 65/85/37 64/84/34
f 60/80/38 80/100/38 79/99/35
f 53/73/39 73/93/39 72/92/36
f 46/66/40 66/86/40 65/85/37
f 61/81/41 81/101/41 80/100/38
f 53/73/39 54/74/42 74/94/42
f 47/67/24 67/87/24 66/86/40
f 42/62/31 62/82/31 81/101/41
f 55/75/26 75/95/26 74/94/42
